<mxfile host="app.diagrams.net" modified="2023-03-24T14:14:44.366Z" agent="Mozilla/5.0 (Macintosh; Intel Mac OS X 10_15_7) AppleWebKit/537.36 (KHTML, like Gecko) Chrome/111.0.0.0 Safari/537.36" etag="RlfY14CZ2qm0VW8CWsXm" version="21.1.0" type="device">
  <diagram name="Page-1" id="LDo77o7VvgPoBXnf-zJY">
    <mxGraphModel dx="2875" dy="1093" grid="1" gridSize="10" guides="1" tooltips="1" connect="1" arrows="1" fold="1" page="1" pageScale="1" pageWidth="850" pageHeight="1100" math="0" shadow="0">
      <root>
        <mxCell id="0" />
        <mxCell id="1" parent="0" />
        <mxCell id="O7RyRIjfAFGkp7-lgVU4-1" value="Forex" style="swimlane;fontStyle=1;align=center;verticalAlign=top;childLayout=stackLayout;horizontal=1;startSize=26;horizontalStack=0;resizeParent=1;resizeParentMax=0;resizeLast=0;collapsible=1;marginBottom=0;whiteSpace=wrap;html=1;" vertex="1" parent="1">
          <mxGeometry x="15" y="330" width="350" height="110" as="geometry" />
        </mxCell>
        <mxCell id="O7RyRIjfAFGkp7-lgVU4-4" value="&lt;u&gt;+ initializeRates()&lt;/u&gt;&lt;br&gt;+ toString(): String&lt;br&gt;+ convert(amount: BigDecimal): BigDecimal&lt;br&gt;+ getInitial(): Currency&lt;br&gt;+ getTarget(): Currency" style="text;strokeColor=none;fillColor=none;align=left;verticalAlign=top;spacingLeft=4;spacingRight=4;overflow=hidden;rotatable=0;points=[[0,0.5],[1,0.5]];portConstraint=eastwest;whiteSpace=wrap;html=1;" vertex="1" parent="O7RyRIjfAFGkp7-lgVU4-1">
          <mxGeometry y="26" width="350" height="84" as="geometry" />
        </mxCell>
        <mxCell id="O7RyRIjfAFGkp7-lgVU4-7" value="&amp;lt;&amp;lt; enumeration &amp;gt;&amp;gt;&lt;br&gt;&lt;b&gt;Currency&lt;/b&gt;" style="swimlane;fontStyle=0;childLayout=stackLayout;horizontal=1;startSize=40;fillColor=none;horizontalStack=0;resizeParent=1;resizeParentMax=0;resizeLast=0;collapsible=1;marginBottom=0;whiteSpace=wrap;html=1;" vertex="1" parent="1">
          <mxGeometry x="60" y="20" width="220" height="210" as="geometry" />
        </mxCell>
        <mxCell id="O7RyRIjfAFGkp7-lgVU4-8" value="SGD&lt;br&gt;USD&lt;br&gt;EUR&lt;br&gt;GBP&lt;br&gt;THB&lt;br&gt;MYR&lt;br&gt;IDR&lt;br&gt;VND&lt;br&gt;CNY&lt;br&gt;JPY&lt;br&gt;KRW" style="text;strokeColor=none;fillColor=none;align=left;verticalAlign=top;spacingLeft=4;spacingRight=4;overflow=hidden;rotatable=0;points=[[0,0.5],[1,0.5]];portConstraint=eastwest;whiteSpace=wrap;html=1;" vertex="1" parent="O7RyRIjfAFGkp7-lgVU4-7">
          <mxGeometry y="40" width="220" height="170" as="geometry" />
        </mxCell>
        <mxCell id="O7RyRIjfAFGkp7-lgVU4-11" value="" style="endArrow=classic;html=1;rounded=0;entryX=0.504;entryY=1.022;entryDx=0;entryDy=0;entryPerimeter=0;" edge="1" parent="1" target="O7RyRIjfAFGkp7-lgVU4-8">
          <mxGeometry width="50" height="50" relative="1" as="geometry">
            <mxPoint x="171" y="330" as="sourcePoint" />
            <mxPoint x="230" y="280" as="targetPoint" />
          </mxGeometry>
        </mxCell>
        <mxCell id="O7RyRIjfAFGkp7-lgVU4-12" value="2" style="text;html=1;align=center;verticalAlign=middle;resizable=0;points=[];autosize=1;strokeColor=none;fillColor=none;" vertex="1" parent="1">
          <mxGeometry x="175" y="230" width="30" height="30" as="geometry" />
        </mxCell>
        <mxCell id="O7RyRIjfAFGkp7-lgVU4-13" value="currencies" style="text;html=1;align=center;verticalAlign=middle;resizable=0;points=[];autosize=1;strokeColor=none;fillColor=none;" vertex="1" parent="1">
          <mxGeometry x="90" y="230" width="80" height="30" as="geometry" />
        </mxCell>
        <mxCell id="O7RyRIjfAFGkp7-lgVU4-14" value="ExchangeRates" style="swimlane;fontStyle=1;align=center;verticalAlign=top;childLayout=stackLayout;horizontal=1;startSize=26;horizontalStack=0;resizeParent=1;resizeParentMax=0;resizeLast=0;collapsible=1;marginBottom=0;whiteSpace=wrap;html=1;" vertex="1" parent="1">
          <mxGeometry x="460" y="330" width="500" height="140" as="geometry" />
        </mxCell>
        <mxCell id="O7RyRIjfAFGkp7-lgVU4-15" value="&lt;u&gt;- Map&amp;lt;String, Double&amp;gt; exchangeRatesMap&lt;/u&gt;&lt;br&gt;&lt;u&gt;- HashMap&amp;lt;Currency, BigDecimal&amp;gt; savedMap&lt;/u&gt;" style="text;strokeColor=none;fillColor=none;align=left;verticalAlign=top;spacingLeft=4;spacingRight=4;overflow=hidden;rotatable=0;points=[[0,0.5],[1,0.5]];portConstraint=eastwest;whiteSpace=wrap;html=1;" vertex="1" parent="O7RyRIjfAFGkp7-lgVU4-14">
          <mxGeometry y="26" width="500" height="34" as="geometry" />
        </mxCell>
        <mxCell id="O7RyRIjfAFGkp7-lgVU4-16" value="" style="line;strokeWidth=1;fillColor=none;align=left;verticalAlign=middle;spacingTop=-1;spacingLeft=3;spacingRight=3;rotatable=0;labelPosition=right;points=[];portConstraint=eastwest;strokeColor=inherit;" vertex="1" parent="O7RyRIjfAFGkp7-lgVU4-14">
          <mxGeometry y="60" width="500" height="8" as="geometry" />
        </mxCell>
        <mxCell id="O7RyRIjfAFGkp7-lgVU4-17" value="- fetchExchangeRates(appId: String, baseCurrency: String)&lt;br&gt;- saveMap(exchangeRatesMap: Map&amp;lt;String, Double&amp;gt;)&lt;br&gt;- filterMap(exchangeRatesMap: Map&amp;lt;String, Double&amp;gt;): HashMap&amp;lt;Currency, BigDecimal&amp;gt;&lt;br&gt;+getExchangeRates(): HashMap&amp;lt;Currency, BigDecimal&amp;gt;" style="text;strokeColor=none;fillColor=none;align=left;verticalAlign=top;spacingLeft=4;spacingRight=4;overflow=hidden;rotatable=0;points=[[0,0.5],[1,0.5]];portConstraint=eastwest;whiteSpace=wrap;html=1;" vertex="1" parent="O7RyRIjfAFGkp7-lgVU4-14">
          <mxGeometry y="68" width="500" height="72" as="geometry" />
        </mxCell>
        <mxCell id="O7RyRIjfAFGkp7-lgVU4-18" value="" style="endArrow=classic;html=1;rounded=0;entryX=-0.002;entryY=-0.011;entryDx=0;entryDy=0;entryPerimeter=0;exitX=1;exitY=0.5;exitDx=0;exitDy=0;" edge="1" parent="1" source="O7RyRIjfAFGkp7-lgVU4-4" target="O7RyRIjfAFGkp7-lgVU4-17">
          <mxGeometry width="50" height="50" relative="1" as="geometry">
            <mxPoint x="420" y="510" as="sourcePoint" />
            <mxPoint x="470" y="350" as="targetPoint" />
          </mxGeometry>
        </mxCell>
        <mxCell id="O7RyRIjfAFGkp7-lgVU4-19" value="&lt;p style=&quot;margin:0px;margin-top:4px;text-align:center;&quot;&gt;&lt;b&gt;ExchangeRatesApi&lt;/b&gt;&lt;/p&gt;&lt;hr size=&quot;1&quot;&gt;&lt;p style=&quot;margin:0px;margin-left:4px;&quot;&gt;Call&amp;lt;ExchangeRatesResponse&amp;gt; getLatestExchangeRates(appId: String, baseCurrency: String)&lt;br&gt;&lt;/p&gt;" style="verticalAlign=top;align=left;overflow=fill;fontSize=12;fontFamily=Helvetica;html=1;whiteSpace=wrap;" vertex="1" parent="1">
          <mxGeometry x="-10" y="550" width="530" height="50" as="geometry" />
        </mxCell>
        <mxCell id="O7RyRIjfAFGkp7-lgVU4-22" value="" style="endArrow=classic;html=1;rounded=0;exitX=0.178;exitY=1.019;exitDx=0;exitDy=0;exitPerimeter=0;entryX=0.5;entryY=0;entryDx=0;entryDy=0;" edge="1" parent="1" source="O7RyRIjfAFGkp7-lgVU4-17" target="O7RyRIjfAFGkp7-lgVU4-19">
          <mxGeometry width="50" height="50" relative="1" as="geometry">
            <mxPoint x="375" y="408" as="sourcePoint" />
            <mxPoint x="711" y="510" as="targetPoint" />
            <Array as="points">
              <mxPoint x="550" y="490" />
              <mxPoint x="255" y="490" />
            </Array>
          </mxGeometry>
        </mxCell>
        <mxCell id="O7RyRIjfAFGkp7-lgVU4-24" value="&lt;p style=&quot;margin:0px;margin-top:4px;text-align:center;&quot;&gt;&lt;i&gt;&amp;lt;&amp;lt;Interface&amp;gt;&amp;gt;&lt;/i&gt;&lt;br&gt;&lt;b&gt;ExchangeRatesApiClient&lt;/b&gt;&lt;/p&gt;&lt;hr size=&quot;1&quot;&gt;&lt;p style=&quot;margin:0px;margin-left:4px;&quot;&gt;+ ExchangeRatesApi getExchangeRatesApi(): ExchangeRatesApi&lt;br&gt;&lt;/p&gt;&lt;p style=&quot;margin:0px;margin-left:4px;&quot;&gt;&lt;u&gt;+ getClient(): Retrofit&lt;/u&gt;&lt;/p&gt;" style="verticalAlign=top;align=left;overflow=fill;fontSize=12;fontFamily=Helvetica;html=1;whiteSpace=wrap;" vertex="1" parent="1">
          <mxGeometry x="710" y="540" width="395" height="80" as="geometry" />
        </mxCell>
        <mxCell id="O7RyRIjfAFGkp7-lgVU4-27" value="" style="endArrow=classic;html=1;rounded=0;entryX=0.5;entryY=0;entryDx=0;entryDy=0;exitX=0.896;exitY=0.986;exitDx=0;exitDy=0;exitPerimeter=0;" edge="1" parent="1" source="O7RyRIjfAFGkp7-lgVU4-17" target="O7RyRIjfAFGkp7-lgVU4-24">
          <mxGeometry width="50" height="50" relative="1" as="geometry">
            <mxPoint x="810" y="480" as="sourcePoint" />
            <mxPoint x="720" y="500" as="targetPoint" />
          </mxGeometry>
        </mxCell>
        <mxCell id="O7RyRIjfAFGkp7-lgVU4-28" value="&lt;p style=&quot;margin:0px;margin-top:4px;text-align:center;&quot;&gt;&lt;b&gt;ExchangeRatesResponse&lt;/b&gt;&lt;/p&gt;&lt;hr size=&quot;1&quot;&gt;&lt;p style=&quot;margin:0px;margin-left:4px;&quot;&gt;- String baseCurrency&lt;/p&gt;&lt;p style=&quot;margin:0px;margin-left:4px;&quot;&gt;- Map&amp;lt;String, Double&amp;gt; exchangeRates&lt;/p&gt;&lt;hr size=&quot;1&quot;&gt;&lt;p style=&quot;margin:0px;margin-left:4px;&quot;&gt;+ getBaseCurrency(): String&lt;/p&gt;&lt;p style=&quot;margin:0px;margin-left:4px;&quot;&gt;+ getExchangeRates: Map&amp;lt;String, Double&amp;gt;&lt;/p&gt;" style="verticalAlign=top;align=left;overflow=fill;fontSize=12;fontFamily=Helvetica;html=1;whiteSpace=wrap;" vertex="1" parent="1">
          <mxGeometry x="480" y="690" width="270" height="110" as="geometry" />
        </mxCell>
        <mxCell id="O7RyRIjfAFGkp7-lgVU4-29" value="uses" style="text;html=1;align=center;verticalAlign=middle;resizable=0;points=[];autosize=1;strokeColor=none;fillColor=none;" vertex="1" parent="1">
          <mxGeometry x="265" y="515" width="50" height="30" as="geometry" />
        </mxCell>
        <mxCell id="O7RyRIjfAFGkp7-lgVU4-30" value="uses" style="text;html=1;align=center;verticalAlign=middle;resizable=0;points=[];autosize=1;strokeColor=none;fillColor=none;" vertex="1" parent="1">
          <mxGeometry x="930" y="510" width="50" height="30" as="geometry" />
        </mxCell>
        <mxCell id="O7RyRIjfAFGkp7-lgVU4-31" value="" style="endArrow=classic;html=1;rounded=0;exitX=0.608;exitY=1.052;exitDx=0;exitDy=0;exitPerimeter=0;entryX=0;entryY=0.5;entryDx=0;entryDy=0;" edge="1" parent="1" source="O7RyRIjfAFGkp7-lgVU4-19" target="O7RyRIjfAFGkp7-lgVU4-28">
          <mxGeometry width="50" height="50" relative="1" as="geometry">
            <mxPoint x="480" y="540" as="sourcePoint" />
            <mxPoint x="530" y="490" as="targetPoint" />
            <Array as="points">
              <mxPoint x="312" y="745" />
            </Array>
          </mxGeometry>
        </mxCell>
        <mxCell id="O7RyRIjfAFGkp7-lgVU4-32" value="" style="endArrow=classic;html=1;rounded=0;entryX=0.5;entryY=0;entryDx=0;entryDy=0;exitX=0.31;exitY=1.012;exitDx=0;exitDy=0;exitPerimeter=0;" edge="1" parent="1" source="O7RyRIjfAFGkp7-lgVU4-17" target="O7RyRIjfAFGkp7-lgVU4-28">
          <mxGeometry width="50" height="50" relative="1" as="geometry">
            <mxPoint x="480" y="540" as="sourcePoint" />
            <mxPoint x="530" y="490" as="targetPoint" />
          </mxGeometry>
        </mxCell>
        <mxCell id="O7RyRIjfAFGkp7-lgVU4-33" value="uses" style="text;html=1;align=center;verticalAlign=middle;resizable=0;points=[];autosize=1;strokeColor=none;fillColor=none;" vertex="1" parent="1">
          <mxGeometry x="630" y="650" width="50" height="30" as="geometry" />
        </mxCell>
        <mxCell id="O7RyRIjfAFGkp7-lgVU4-35" value="uses" style="text;html=1;align=center;verticalAlign=middle;resizable=0;points=[];autosize=1;strokeColor=none;fillColor=none;" vertex="1" parent="1">
          <mxGeometry x="425" y="710" width="50" height="30" as="geometry" />
        </mxCell>
      </root>
    </mxGraphModel>
  </diagram>
</mxfile>
